Coordinates
version=1
nRows=14
nColumns=63
inDegrees=yes

Units are S.I. units (second, meters, Newtons, ...)
If the header above contains a line with 'inDegrees', this indicates whether rotational values are in degrees (yes) or radians (no).

endheader
time	pelvis_tilt	pelvis_list	pelvis_rotation	pelvis_tx	pelvis_ty	pelvis_tz	hip_flexion_r	hip_adduction_r	hip_rotation_r	knee_angle_r	knee_angle_r_beta	ankle_angle_r	subtalar_angle_r	mtp_angle_r	hip_flexion_l	hip_adduction_l	hip_rotation_l	knee_angle_l	knee_angle_l_beta	ankle_angle_l	subtalar_angle_l	mtp_angle_l	L5_S1_Flex_Ext	L5_S1_Lat_Bending	L5_S1_axial_rotation	L4_L5_Flex_Ext	L4_L5_Lat_Bending	L4_L5_axial_rotation	L3_L4_Flex_Ext	L3_L4_Lat_Bending	L3_L4_axial_rotation	L2_L3_Flex_Ext	L2_L3_Lat_Bending	L2_L3_axial_rotation	L1_L2_Flex_Ext	L1_L2_Lat_Bending	L1_L2_axial_rotation	L1_T12_Flex_Ext	L1_T12_Lat_Bending	L1_T12_axial_rotation	Abs_r3	Abs_r2	Abs_r1	Abs_t1	Abs_t2	neck_flexion	neck_bending	neck_rotation	arm_flex_r	arm_add_r	arm_rot_r	elbow_flex_r	pro_sup_r	wrist_flex_r	wrist_dev_r	arm_flex_l	arm_add_l	arm_rot_l	elbow_flex_l	pro_sup_l	wrist_flex_l	wrist_dev_l
0.000000	-4.242569	-4.749467	95.628475	0.070131	0.460318	0.835320	5.303696	-0.903284	-9.264985	7.103290	0.123976	28.922368	16.397030	0.000000	6.129211	1.985984	3.046454	7.339081	0.128091	23.868699	-5.085403	0.000000	0.214924	-0.173090	-0.535412	0.399135	-0.230210	-0.568875	0.353099	-0.420852	-0.568875	0.245637	-0.420852	-0.468485	0.199578	-0.352966	-0.435022	0.122808	-0.268117	-0.401559	1.535180	-1.958032	-2.977800	0.000000	0.000000	22.634603	-2.159808	12.169286	9.223962	-12.126704	50.757562	67.829017	49.524278	-4.180561	31.359028	11.217764	-8.818308	61.502489	52.876586	55.593293	6.045744	17.404684
0.016949	-4.299071	-4.708388	96.310133	0.070223	0.459323	0.835949	5.115832	-0.906893	-9.894102	7.011190	0.122368	28.801252	16.133589	0.000000	6.596812	2.022651	2.739784	8.363430	0.145969	24.337605	-4.183454	0.000000	0.213941	-0.200822	-0.571720	0.397310	-0.267094	-0.607453	0.351484	-0.488279	-0.607453	0.244513	-0.488279	-0.500255	0.198666	-0.409517	-0.464523	0.122246	-0.311074	-0.428790	1.528159	-2.271741	-3.179736	0.000000	0.000000	23.399296	-2.309508	11.171682	9.102664	-12.069239	51.110223	68.671840	36.632655	-12.464183	29.850721	11.801211	-8.263116	60.867233	51.778117	59.323624	7.533300	16.529364
0.033898	-4.341031	-4.676473	96.860679	0.070353	0.458463	0.836480	4.972731	-0.901714	-10.402918	6.936135	0.121058	28.736757	15.942963	0.000000	6.990813	2.040083	2.452317	9.224290	0.160994	24.747188	-3.388569	0.000000	0.213723	-0.223263	-0.597954	0.396905	-0.296940	-0.635326	0.351125	-0.542842	-0.635326	0.244264	-0.542842	-0.523210	0.198463	-0.455279	-0.485837	0.122121	-0.345835	-0.448465	1.526601	-2.525599	-3.325639	0.000000	0.000000	24.005031	-2.434847	10.354209	8.930204	-11.948392	51.187717	69.322570	26.024958	-19.419898	28.693846	12.286391	-7.822973	60.401844	50.866253	61.951104	8.771695	16.048794
0.050847	-4.369837	-4.652436	97.293735	0.070513	0.457732	0.836918	4.868997	-0.888970	-10.803817	6.876456	0.120017	28.722703	15.817602	0.000000	7.316621	2.040692	2.185813	9.934527	0.173390	25.102231	-2.694164	0.000000	0.214154	-0.240873	-0.615270	0.397705	-0.320360	-0.653725	0.351833	-0.585657	-0.653725	0.244757	-0.585657	-0.538362	0.198863	-0.491187	-0.499907	0.122368	-0.373112	-0.461453	1.529680	-2.724798	-3.421949	0.000000	0.000000	24.466441	-2.538473	9.700247	8.713016	-11.770996	51.018832	69.798664	17.499362	-25.170359	27.856313	12.683527	-7.485820	60.092630	50.122651	63.619628	9.789223	15.909043
0.067797	-4.386881	-4.634993	97.622919	0.070693	0.457119	0.837268	4.799232	-0.869883	-11.109182	6.830482	0.119214	28.752913	15.749954	0.000000	7.579644	2.026888	1.942031	10.507007	0.183382	25.407514	-2.093652	0.000000	0.215118	-0.254109	-0.624828	0.399496	-0.337965	-0.663880	0.353418	-0.617840	-0.663880	0.245859	-0.617840	-0.546724	0.199759	-0.518179	-0.507673	0.122919	-0.393615	-0.468621	1.536569	-2.874531	-3.475106	0.000000	0.000000	24.798156	-2.623032	9.193170	8.457533	-11.543882	50.632357	70.117578	10.854043	-29.838219	27.306031	13.002839	-7.239603	59.925902	49.528966	64.473091	10.614180	16.056179
0.084746	-4.393552	-4.622858	97.861853	0.070883	0.456617	0.837536	4.758038	-0.845676	-11.331399	6.796544	0.118622	28.821211	15.732469	0.000000	7.785290	2.001081	1.722730	10.954593	0.191194	25.667816	-1.580447	0.000000	0.216500	-0.263431	-0.627785	0.402063	-0.350364	-0.667021	0.355688	-0.640507	-0.667021	0.247438	-0.640507	-0.549312	0.201042	-0.537189	-0.510075	0.123708	-0.408055	-0.470838	1.546439	-2.979989	-3.491550	0.000000	0.000000	25.014808	-2.691173	8.816358	8.170189	-11.273881	50.057079	70.296770	5.887175	-33.546133	27.010909	13.254546	-7.072263	59.887970	49.066853	64.655388	11.274862	16.436269
0.101695	-4.391240	-4.614747	98.024157	0.071074	0.456217	0.837724	4.740019	-0.817570	-11.482849	6.772970	0.118211	28.921417	15.757594	0.000000	7.938966	1.965682	1.529669	11.290151	0.197050	25.887918	-1.147963	0.000000	0.218184	-0.269299	-0.625298	0.405189	-0.358168	-0.664379	0.358454	-0.654774	-0.664379	0.249362	-0.654774	-0.547136	0.202605	-0.549155	-0.508055	0.124670	-0.417144	-0.468974	1.558465	-3.046366	-3.477721	0.000000	0.000000	25.131029	-2.745543	8.553187	7.857417	-10.967826	49.321785	70.353697	2.396933	-36.416753	26.938857	13.448869	-6.971745	59.965143	48.717969	64.310414	11.799563	16.995382
0.118644	-4.381336	-4.609375	98.123451	0.071255	0.455910	0.837840	4.739776	-0.786787	-11.575917	6.758092	0.117951	29.047354	15.817780	0.000000	8.046080	1.923101	1.364608	11.526547	0.201176	26.072601	-0.789615	0.000000	0.220053	-0.272171	-0.618527	0.408661	-0.361987	-0.657185	0.361526	-0.661757	-0.657185	0.251499	-0.661757	-0.541211	0.204341	-0.555011	-0.502553	0.125738	-0.421593	-0.463895	1.571819	-3.078853	-3.440061	0.000000	0.000000	25.161450	-2.788788	8.387034	7.525652	-10.632547	48.455263	70.305816	0.181492	-38.572733	27.057784	13.596029	-6.925991	60.143732	48.463970	63.582064	12.216580	17.679584
0.135593	-4.365230	-4.605456	98.173356	0.071419	0.455688	0.837887	4.751914	-0.754551	-11.622986	6.750238	0.117814	29.192845	15.905474	0.000000	8.112040	1.875748	1.229307	11.676644	0.203796	26.226645	-0.498817	0.000000	0.221993	-0.272506	-0.608629	0.412263	-0.362433	-0.646668	0.364712	-0.662571	-0.646668	0.253716	-0.662571	-0.532550	0.206143	-0.555694	-0.494511	0.126847	-0.422112	-0.456471	1.585673	-3.082642	-3.385010	0.000000	0.000000	25.120701	-2.823558	8.301277	7.181326	-10.274876	47.486301	70.170585	-0.960973	-40.136727	27.335600	13.706247	-6.922944	60.410046	48.286510	62.614233	12.554207	18.434944
0.152542	-4.344312	-4.601707	98.187492	0.071555	0.455541	0.837870	4.771034	-0.722082	-11.636440	6.747739	0.117770	29.351712	16.013126	0.000000	8.142254	1.826033	1.125524	11.753308	0.205134	26.354831	-0.268982	0.000000	0.223887	-0.270763	-0.596761	0.415780	-0.360115	-0.634059	0.367823	-0.658334	-0.634059	0.255880	-0.658334	-0.522166	0.207901	-0.552140	-0.484869	0.127929	-0.419412	-0.447571	1.599200	-3.062927	-3.319007	0.000000	0.000000	25.023415	-2.852498	8.279293	6.830873	-9.901645	46.443686	69.965460	-1.232288	-41.231388	27.740214	13.789742	-6.950548	60.750395	48.167247	61.550817	12.840741	19.207530
0.169492	-4.319971	-4.596841	98.179479	0.071653	0.455461	0.837795	4.791738	-0.690603	-11.628663	6.748924	0.117791	29.517777	16.133185	0.000000	8.142129	1.776368	1.055018	11.769405	0.205415	26.461938	-0.093525	0.000000	0.225619	-0.267401	-0.584083	0.418997	-0.355644	-0.620588	0.370670	-0.650160	-0.620588	0.257860	-0.650160	-0.511073	0.209510	-0.545285	-0.474567	0.128919	-0.414205	-0.438062	1.611574	-3.024899	-3.248494	0.000000	0.000000	24.884222	-2.878256	8.304459	6.480727	-9.519684	45.356206	69.707900	-0.834277	-41.979370	28.239536	13.856735	-6.996747	61.151089	48.087835	60.535710	13.104476	19.943409
0.186441	-4.297164	-4.589438	98.187449	0.071681	0.455440	0.837651	4.796336	-0.662430	-11.619348	6.728487	0.117434	29.683306	16.257507	0.000000	8.126454	1.733766	0.992234	11.748366	0.205048	26.592294	0.076252	0.000000	0.226899	-0.263293	-0.584523	0.421374	-0.350180	-0.621056	0.372772	-0.640172	-0.621056	0.259323	-0.640172	-0.511458	0.210698	-0.536908	-0.474925	0.129650	-0.407842	-0.438392	1.620715	-2.978428	-3.250943	0.000000	0.000000	24.678974	-2.860303	8.415344	6.235706	-9.105604	44.222031	69.232704	2.694666	-40.650295	28.843512	13.863980	-7.006144	61.302156	47.963354	60.838667	13.666837	20.340250
0.203390	-4.281622	-4.579082	98.219375	0.071645	0.455459	0.837447	4.781424	-0.646465	-11.620711	6.708658	0.117088	29.834443	16.352548	0.000000	8.098499	1.700588	0.922879	11.703237	0.204260	26.719026	0.278234	0.000000	0.227866	-0.260166	-0.577872	0.423170	-0.346021	-0.613989	0.374361	-0.632568	-0.613989	0.260428	-0.632568	-0.505638	0.211596	-0.530531	-0.469521	0.130203	-0.402997	-0.433404	1.627623	-2.943051	-3.213951	0.000000	0.000000	24.512520	-2.874834	8.452795	5.879412	-8.685643	43.147348	68.998302	1.596217	-42.800755	29.375997	13.942901	-7.009695	61.649727	47.831972	61.265021	14.264049	20.563426
0.220339	-4.266308	-4.557299	98.286171	0.071519	0.455513	0.837205	4.740769	-0.635554	-11.653328	6.693079	0.116816	29.967433	16.422652	0.000000	8.055898	1.679034	0.951662	11.647221	0.203282	26.833536	0.384339	0.000000	0.227280	-0.256883	-0.572199	0.422082	-0.341654	-0.607962	0.373398	-0.624585	-0.607962	0.259758	-0.624585	-0.500674	0.211052	-0.523835	-0.464912	0.129868	-0.397912	-0.429150	1.623439	-2.905910	-3.182401	0.000000	0.000000	24.385596	-2.900032	8.462203	5.535399	-8.276646	42.085356	68.784506	0.637789	-45.022663	29.843689	14.075150	-6.995353	62.123266	47.700874	62.045799	14.859996	20.602005
